#N canvas 1284 104 458 716 16;
#X declare -lib mrpeach;
#X obj 193 300 +;
#X floatatom 33 287 5 0 0 0 - - -;
#X obj 130 185 int 1;
#X obj 173 259 int 0;
#X obj 54 11 tgl 15 0 empty empty empty 17 7 0 10 -262144 -1 -1 1 1
;
#X obj 390 85 bng 15 250 50 0 empty empty empty 17 7 0 10 -262144 -1
-1;
#X msg 491 131 0;
#X msg 166 106 1;
#X text 421 80 reset;
#X obj 198 209 trigger a b a;
#X obj 131 75 receive secuencia;
#X obj 193 326 send secuencia;
#X obj 37 394 packOSC;
#X obj 34 496 udpsend;
#X msg 119 412 disconnect;
#X obj 386 40 import mrpeach;
#X obj 329 509 unpackOSC;
#X obj 330 551 print;
#X msg 122 450 connect 127.0.0.1 12000;
#X msg 34 348 /x \$1;
#X obj 305 424 udpreceive 12001;
#X obj 32 318 i;
#X obj 55 38 metro 200;
#X connect 0 0 11 0;
#X connect 1 0 21 0;
#X connect 2 0 1 0;
#X connect 2 0 9 0;
#X connect 3 0 0 0;
#X connect 4 0 22 0;
#X connect 5 0 7 0;
#X connect 5 0 6 0;
#X connect 6 0 3 1;
#X connect 6 0 1 0;
#X connect 7 0 2 1;
#X connect 9 0 3 1;
#X connect 9 1 3 0;
#X connect 9 2 0 1;
#X connect 10 0 2 1;
#X connect 12 0 13 0;
#X connect 14 0 13 0;
#X connect 16 0 17 0;
#X connect 18 0 13 0;
#X connect 19 0 12 0;
#X connect 20 0 16 0;
#X connect 21 0 19 0;
#X connect 22 0 2 0;
